<svg width="146" height="90" viewBox="0 0 146 90" fill="none" xmlns="http://www.w3.org/2000/svg">
    <path d="M37.6001 34.2717L78.8001 58.0717L136.6 24.7717L95.3001 0.97168L37.6001 34.2717Z" stroke="black" stroke-width="1.5" stroke-miterlimit="10" stroke-linecap="round" stroke-linejoin="round"/>
    <path d="M29.2998 39.0717L78.7998 67.6717V58.0717L37.5998 34.2717L29.2998 39.0717Z" stroke="black" stroke-width="1.5" stroke-miterlimit="10" stroke-linecap="round" stroke-linejoin="round"/>
    <path d="M144.7 29.4717L136.6 24.7717L78.7998 58.0717V67.6717L144.7 29.4717Z" stroke="black" stroke-width="1.5" stroke-miterlimit="10" stroke-linecap="round" stroke-linejoin="round"/>
    <path d="M49 59.954L78.7998 77.1717V67.6717L29.2998 39.0717V48.5717L45 57.6429" stroke="black" stroke-width="1.5" stroke-miterlimit="10" stroke-linecap="round" stroke-linejoin="round"/>
    <path d="M144.8 38.9717L144.7 29.4717L78.7998 67.6717V77.1717L144.8 38.9717Z" stroke="black" stroke-width="1.5" stroke-miterlimit="10" stroke-linecap="round" stroke-linejoin="round"/>
    <path d="M17.9001 79.4401C18.2127 78.902 18.446 78.3368 18.6001 77.7717C19.0001 76.3717 18.7001 75.3717 17.9001 74.7717L17.4001 74.4717C16.8001 74.2717 16.1001 74.2717 15.2001 74.4717C12.7001 75.1717 10.1001 77.7717 9.40014 80.2717C9.10014 81.6717 9.30014 82.6717 10.0001 83.2717L10.7001 83.6717C11.0001 83.7717 11.4001 83.7717 11.9001 83.7717C12.2001 83.6717 12.5001 83.6717 12.8001 83.5717C13.7115 83.3113 14.6653 82.7966 15.5235 82.1104" stroke="black" stroke-width="1.5" stroke-miterlimit="10" stroke-linecap="round" stroke-linejoin="round"/>
    <path d="M51.4004 56.4717L51.5004 56.2717C51.8004 55.8717 52.3004 55.6717 53.0004 55.8717C53.5004 55.9717 54.1004 56.3717 54.5004 56.7717C55.1004 57.2717 55.6004 58.0717 55.8004 58.7717C55.8004 58.8717 55.9004 59.0717 55.9004 59.1717C55.9004 59.3717 55.9004 59.5717 55.8004 59.7717L55.6004 60.0717C55.3004 60.3717 54.8004 60.5717 54.2004 60.3717C53.7012 60.2469 53.1848 59.9491 52.7302 59.5574" stroke="black" stroke-width="1.5" stroke-miterlimit="10" stroke-linecap="round" stroke-linejoin="round"/>
    <path d="M17.5 74.4717C16.9 74.2717 16.2 74.1717 15.3 74.4717C12.8 75.1717 10.1 77.7717 9.5 80.2717C9.1 81.5717 9.4 82.6717 10.1 83.2717L2.5 78.8717L1.8 78.4717C1.8 78.4717 1.8 78.4717 1.7 78.4717C1.2 78.0717 1 77.4717 1 76.7717C1 76.3717 1 75.9717 1.2 75.4717C1.9 72.9717 4.5 70.2717 7 69.6717C8.2 69.3717 9.1 69.4717 9.7 69.9717L17.5 74.4717Z" stroke="black" stroke-width="1.5" stroke-miterlimit="10" stroke-linecap="round" stroke-linejoin="round"/>
    <path d="M33.8002 89.0717C24.6002 89.0717 14.5002 81.1717 14.0002 80.7717C13.3002 80.2717 13.2002 79.2717 13.7002 78.6717C14.2002 77.9717 15.2002 77.8717 15.8002 78.3717C15.9002 78.4717 30.9002 90.0717 39.0002 84.5717C40.2002 83.7717 40.9002 82.8717 41.0002 82.0717C41.3002 80.3717 39.5002 78.0717 37.7002 75.7717C35.1002 72.3717 32.1002 68.5717 34.3002 64.4717C38.6002 56.6717 52.8002 56.5717 53.5002 56.5717C54.3002 56.5717 55.0002 57.2717 55.0002 58.0717C55.0002 58.8717 54.3002 59.5717 53.5002 59.5717C53.4002 59.5717 40.4002 59.6717 37.0002 65.9717C35.8002 68.1717 37.5002 70.5717 40.1002 73.9717C42.2002 76.6717 44.4002 79.5717 44.0002 82.5717C43.7002 84.2717 42.6002 85.7717 40.7002 87.1717C38.6002 88.5717 36.2002 89.0717 33.8002 89.0717Z" stroke="black" stroke-width="1.5" stroke-miterlimit="10" stroke-linecap="round" stroke-linejoin="round"/>
</svg>
