<svg width="100" height="13" viewBox="0 0 100 13" fill="none" xmlns="http://www.w3.org/2000/svg">
    <path opacity="0.4" fill-rule="evenodd" clip-rule="evenodd" d="M6.99599 13C9.89293 13 11.5483 11.4739 12.4943 9.91014L10.09 8.79855C9.5382 9.83478 8.35578 10.6261 6.99599 10.6261C4.61144 10.6261 2.87723 8.87391 2.87723 6.5C2.87723 4.12609 4.61144 2.37391 6.99599 2.37391C8.35578 2.37391 9.5382 3.18406 10.09 4.20145L12.4943 3.07101C11.568 1.50725 9.89293 0 6.99599 0C3.05459 0 0 2.63768 0 6.5C0 10.3623 3.05459 13 6.99599 13ZM22.1485 13C18.1874 13 15.2905 10.287 15.2905 6.5C15.2905 2.71304 18.1874 0 22.1485 0C26.1293 0 29.0263 2.71304 29.0263 6.5C29.0263 10.287 26.1293 13 22.1485 13ZM22.1485 10.6261C24.5725 10.6261 26.149 8.83623 26.149 6.5C26.149 4.14493 24.5725 2.37391 22.1485 2.37391C19.7245 2.37391 18.1677 4.14493 18.1677 6.5C18.1677 8.83623 19.7245 10.6261 22.1485 10.6261ZM43.3905 12.7739H40.1782L37.5966 8.3087H35.5471V12.7739H32.7487V0.207246H38.8973C41.6366 0.207246 43.3117 1.92174 43.3117 4.25797C43.3117 6.48116 41.8533 7.66812 40.4344 7.98841L43.3905 12.7739ZM38.4834 5.95362C39.6067 5.95362 40.4541 5.31304 40.4541 4.25797C40.4541 3.2029 39.6067 2.56232 38.4834 2.56232H35.5471V5.95362H38.4834ZM57.8138 12.7739H54.6016L52.02 8.3087H49.9704V12.7739H47.172V0.207246H53.3206C56.0599 0.207246 57.735 1.92174 57.735 4.25797C57.735 6.48116 56.2767 7.66812 54.8578 7.98841L57.8138 12.7739ZM52.9068 5.95362C54.0301 5.95362 54.8775 5.31304 54.8775 4.25797C54.8775 3.2029 54.0301 2.56232 52.9068 2.56232H49.9704V5.95362H52.9068ZM70.8971 12.7739V10.4188H64.3938V7.57391H70.7592V5.21884H64.3938V2.56232H70.8971V0.207246H61.5954V12.7739H70.8971ZM87.0941 12.7739H83.9016L83.0936 10.6449H77.4574L76.6297 12.7739H73.4371L78.5215 0.207246H82.0294L87.0941 12.7739ZM82.325 8.28986L80.2755 2.88261L78.2259 8.28986H82.325ZM94.7382 13C98.2855 13 100 11.2667 100 8.96812C100 4.27681 92.4522 5.61449 92.4522 3.61739C92.4522 2.86377 93.1222 2.35507 94.3244 2.35507C95.6645 2.35507 97.0834 2.78841 98.1475 3.73043L99.7044 1.77101C98.4037 0.621739 96.6695 0.0188406 94.5806 0.0188406C91.4866 0.0188406 89.5947 1.75217 89.5947 3.84348C89.5947 8.57246 97.1622 7.04638 97.1622 9.26957C97.1622 9.98551 96.4133 10.6638 94.8762 10.6638C93.0631 10.6638 91.6245 9.8913 90.6983 8.96812L89.1808 11.0029C90.4027 12.1899 92.2157 13 94.7382 13Z" fill="white"/>
</svg>
