<svg width="62" height="48" viewBox="0 0 62 48" fill="none" xmlns="http://www.w3.org/2000/svg">
    <path d="M5.5 39.5515C7.15686 39.5515 8.5 38.218 8.5 36.573C8.5 34.928 7.15686 33.5944 5.5 33.5944C3.84315 33.5944 2.5 34.928 2.5 36.573C2.5 38.218 3.84315 39.5515 5.5 39.5515Z" stroke="#EB016E" stroke-width="2" stroke-miterlimit="10" stroke-linecap="round" stroke-linejoin="round"/>
    <path d="M12.9995 35.0839C12.9995 35.0839 17.4995 41.0411 31.1495 41.0411C31.1495 41.0411 44.4995 41.0411 48.9995 35.0839" stroke="#202E35" stroke-width="2" stroke-miterlimit="10" stroke-linecap="round" stroke-linejoin="round"/>
    <path d="M30.9995 32.1048L12.9995 22.274V41.0419C12.9995 41.0419 17.4995 47 31.1495 47C31.1495 47 44.4995 47 48.9995 41.0419V22.274L30.9995 32.1048Z" stroke="#202E35" stroke-width="2" stroke-miterlimit="10" stroke-linecap="round" stroke-linejoin="round"/>
    <path d="M5.50049 33.5944V18.1032" stroke="#EB016E" stroke-width="2" stroke-miterlimit="10" stroke-linecap="round" stroke-linejoin="round"/>
    <path d="M31 1L1 15.72L31 32.1048L49 22.2739L61 15.72L31 1Z" stroke="#202E35" stroke-width="2" stroke-miterlimit="10" stroke-linecap="round" stroke-linejoin="round"/>
</svg>
