<svg width="52" height="48" viewBox="0 0 52 48" fill="none" xmlns="http://www.w3.org/2000/svg">
    <path d="M21.6523 12.75V1H51V38.3865H21.6523V24.5001" stroke="#EB016E" stroke-width="2" stroke-miterlimit="10" stroke-linejoin="round"/>
    <path d="M17.3043 36.2501V21.2955H25.9999C29.2607 21.2955 31.4346 18.3046 31.4346 15.9546C29.6955 15.9546 11.6521 15.9546 9.69561 15.9546C4.58694 15.9546 1 17.5569 1 22.3637V31.9774C1 34.2206 3.06521 36.2501 5.3478 36.2501" stroke="#202E35" stroke-width="2" stroke-miterlimit="10" stroke-linejoin="round"/>
    <path d="M17.3047 22.3637V48" stroke="#202E35" stroke-width="2" stroke-miterlimit="10" stroke-linejoin="round"/>
    <path d="M11.8696 34.1138V48" stroke="#202E35" stroke-width="2" stroke-miterlimit="10" stroke-linejoin="round"/>
    <path d="M6.43457 22.3637V48" stroke="#202E35" stroke-width="2" stroke-miterlimit="10" stroke-linejoin="round"/>
    <path d="M12.4127 12.7501C15.1301 12.7501 17.304 11.041 17.304 8.47732V5.27275C17.304 2.7091 15.1301 1 12.4127 1C9.69537 1 7.52148 2.7091 7.52148 5.27275V8.47732C7.52148 11.041 9.69537 12.7501 12.4127 12.7501Z" stroke="#202E35" stroke-width="2" stroke-miterlimit="10" stroke-linejoin="round"/>
    <path d="M36.8687 37.3185V46.932" stroke="#EB016E" stroke-width="2" stroke-miterlimit="10" stroke-linejoin="round"/>
    <path d="M29.1509 45.9708L36.8682 38.3865L44.5856 45.9708" stroke="#EB016E" stroke-width="2" stroke-miterlimit="10" stroke-linejoin="round"/>
</svg>
