<svg width="715" height="412" viewBox="0 0 715 412" fill="none" xmlns="http://www.w3.org/2000/svg">
    <g opacity="0.4">
        <path d="M184.091 16.06L211.602 0.213257L238.894 16.06L211.602 31.9067L184.091 16.06Z" fill="#CDE5E2"/>
        <path d="M184.091 95.2937V16.0602L211.602 31.9069V111.14L184.091 95.2937Z" fill="#C4D9D6"/>
        <path d="M238.894 95.5138V16.0602L211.603 31.9069V111.14L238.894 95.5138Z" fill="#C9DFDC"/>
    </g>
    <g opacity="0.4">
        <path d="M262.572 19.5624L287.753 5.05798L312.733 19.5624L287.753 34.0667L262.572 19.5624Z" fill="#CDE5E2"/>
        <path d="M262.572 92.0847V19.5629L287.753 34.0672V106.589L262.572 92.0847Z" fill="#C4D9D6"/>
        <path d="M312.733 92.2862V19.5629L287.753 34.0672V106.589L312.733 92.2862Z" fill="#C9DFDC"/>
    </g>
    <g opacity="0.4">
        <path d="M58.1338 84.6319L78.5352 72.8807L98.7734 84.6319L78.5352 96.3831L58.1338 84.6319Z" fill="#CDE5E2"/>
        <path d="M58.1338 116.295V84.6324L78.5352 96.3836V128.047L58.1338 116.295Z" fill="#C4D9D6"/>
        <path d="M98.7733 116.459V84.6324L78.5352 96.3836V128.047L98.7733 116.459Z" fill="#C9DFDC"/>
    </g>
    <g opacity="0.5">
        <path d="M395.832 64.5249L430.207 44.7245L464.308 64.5249L430.207 84.3254L395.832 64.5249Z" fill="#CDE5E2"/>
        <path d="M395.831 117.877V64.5259L430.206 84.3263V137.677L395.831 117.877Z" fill="#C4D9D6"/>
        <path d="M464.307 118.152V64.5259L430.206 84.3263V137.677L464.307 118.152Z" fill="#C9DFDC"/>
    </g>
    <g opacity="0.4">
        <path d="M101.89 282.964L136.265 263.164L170.366 282.964L136.265 302.765L101.89 282.964Z" fill="#CDE5E2"/>
        <path d="M101.89 336.317V282.966L136.265 302.766V356.117L101.89 336.317Z" fill="#C4D9D6"/>
        <path d="M170.366 336.592V282.966L136.266 302.766V356.117L170.366 336.592Z" fill="#C9DFDC"/>
    </g>
    <path d="M293.208 163.456L331.846 141.2L370.175 163.456L331.846 185.711L293.208 163.456Z" fill="#D5EEEB" stroke="#202E35" stroke-width="1.5" stroke-linejoin="round"/>
    <path d="M293.208 274.734V163.456L331.846 185.712V296.99L293.208 274.734Z" fill="#D5EEEB" stroke="#202E35" stroke-width="1.5" stroke-linejoin="round"/>
    <path d="M370.175 275.043V163.456L331.846 185.712V296.99L370.175 275.043Z" fill="#D5EEEB" stroke="#202E35" stroke-width="1.5" stroke-linejoin="round"/>
    <path d="M418.564 132.923L457.203 110.668L495.532 132.923L457.203 155.179L418.564 132.923Z" fill="#CDE5E2"/>
    <path d="M418.564 244.202V132.924L457.203 155.18V266.458L418.564 244.202Z" fill="#C4D9D6"/>
    <path d="M495.532 244.511V132.924L457.203 155.18V266.458L495.532 244.511Z" fill="#C9DFDC"/>
    <path d="M396.564 232.642L435.203 210.387L473.532 232.642L435.203 254.898L396.564 232.642Z" fill="#CDE5E2"/>
    <path d="M396.564 343.921V232.643L435.202 254.898V366.176L396.564 343.921Z" fill="#C4D9D6"/>
    <path d="M473.531 344.23V232.643L435.202 254.898V366.176L473.531 344.23Z" fill="#C9DFDC"/>
    <g opacity="0.4">
        <path d="M632.596 250.853L660.195 234.956L687.573 250.853L660.195 266.75L632.596 250.853Z" fill="#CDE5E2"/>
        <path d="M632.596 330.338V250.854L660.195 266.751V346.235L632.596 330.338Z" fill="#C4D9D6"/>
        <path d="M687.573 330.559V250.854L660.195 266.751V346.235L687.573 330.559Z" fill="#C9DFDC"/>
    </g>
    <path d="M403.062 316.469L430.661 300.572L458.038 316.469L430.661 332.366L403.062 316.469Z" fill="#CDE5E2"/>
    <path d="M403.062 395.954V316.469L430.661 332.366V411.85L403.062 395.954Z" fill="#C4D9D6"/>
    <path d="M458.038 396.174V316.469L430.661 332.366V411.85L458.038 396.174Z" fill="#C9DFDC"/>
    <g opacity="0.3">
        <path d="M592.966 86.8399L620.565 70.9431L647.943 86.8399L620.565 102.737L592.966 86.8399Z" fill="#CDE5E2"/>
        <path d="M592.966 129.673V86.8402L620.565 102.737V145.57L592.966 129.673Z" fill="#C4D9D6"/>
        <path d="M647.943 129.894V86.8402L620.565 102.737V145.57L647.943 129.894Z" fill="#C9DFDC"/>
    </g>
    <g opacity="0.4">
        <path d="M646.523 142.958L680.899 123.158L715 142.958L680.899 162.759L646.523 142.958Z" fill="#CDE5E2"/>
        <path d="M646.523 196.31V142.959L680.899 162.76V216.111L646.523 196.31Z" fill="#C4D9D6"/>
        <path d="M715 196.585V142.959L680.899 162.76V216.111L715 196.585Z" fill="#C9DFDC"/>
    </g>
    <g opacity="0.5">
        <path d="M116.55 70.3893L150.926 50.5889L185.027 70.3893L150.926 90.1897L116.55 70.3893Z" fill="#CDE5E2"/>
        <path d="M116.55 123.741V70.3898L150.926 90.1902V143.541L116.55 123.741Z" fill="#C4D9D6"/>
        <path d="M185.027 124.016V70.3898L150.926 90.1902V143.541L185.027 124.016Z" fill="#C9DFDC"/>
    </g>
    <g opacity="0.5">
        <path d="M40.3159 151.754L74.6917 131.954L108.792 151.754L74.6917 171.555L40.3159 151.754Z" fill="#CDE5E2"/>
        <path d="M40.3159 205.106V151.755L74.6917 171.556V224.907L40.3159 205.106Z" fill="#C4D9D6"/>
        <path d="M108.792 205.381V151.755L74.6914 171.556V224.907L108.792 205.381Z" fill="#C9DFDC"/>
    </g>
    <path d="M323.995 68.1898L358.37 48.3894L392.471 68.1898L358.37 87.9903L323.995 68.1898Z" fill="#CDE5E2"/>
    <path d="M323.995 121.542V68.1906L358.37 87.991V141.342L323.995 121.542Z" fill="#C4D9D6"/>
    <path d="M392.471 121.817V68.1906L358.371 87.991V141.342L392.471 121.817Z" fill="#C9DFDC"/>
    <path d="M97.4917 134.418L136.13 112.163L174.459 134.418L136.13 156.674L97.4917 134.418Z" fill="#CDE5E2"/>
    <path d="M97.4917 245.696V134.419L136.13 156.674V267.952L97.4917 245.696Z" fill="#C4D9D6"/>
    <path d="M174.459 246.005V134.419L136.13 156.674V267.952L174.459 246.005Z" fill="#C9DFDC"/>
    <path d="M194.983 55.985L233.621 33.7295L271.95 55.985L233.621 78.2406L194.983 55.985Z" fill="#CDE5E2"/>
    <path d="M194.983 167.263V55.9856L233.621 78.2411V189.519L194.983 167.263Z" fill="#C4D9D6"/>
    <path d="M271.951 167.572V55.9856L233.622 78.2411V189.519L271.951 167.572Z" fill="#C9DFDC"/>
    <g opacity="0.5">
        <path d="M500.652 45.7226L539.29 23.467L577.619 45.7226L539.29 67.9781L500.652 45.7226Z" fill="#CDE5E2"/>
        <path d="M500.652 157.001V45.723L539.29 67.9786V179.256L500.652 157.001Z" fill="#C4D9D6"/>
        <path d="M577.62 157.31V45.723L539.291 67.9786V179.256L577.62 157.31Z" fill="#C9DFDC"/>
    </g>
    <path d="M510.61 107.732L549.248 85.4764L587.577 107.732L549.248 129.988L510.61 107.732Z" fill="#CDE5E2"/>
    <path d="M510.61 219.01V107.732L549.248 129.988V241.266L510.61 219.01Z" fill="#C4D9D6"/>
    <path d="M587.577 219.319V107.732L549.248 129.988V241.266L587.577 219.319Z" fill="#C9DFDC"/>
    <g opacity="0.8">
        <path d="M0 212.118L38.6381 189.862L76.9671 212.118L38.6381 234.373L0 212.118Z" fill="#CDE5E2"/>
        <path d="M0 323.397V212.119L38.6381 234.375V345.652L0 323.397Z" fill="#C4D9D6"/>
        <path d="M76.9672 323.706V212.119L38.6382 234.375V345.652L76.9672 323.706Z" fill="#C9DFDC"/>
    </g>
    <path d="M304.936 85.6353L331.799 70.1624L358.446 85.6353L331.799 101.108L304.936 85.6353Z" fill="#D5EEEB" stroke="#202E35" stroke-width="1.5" stroke-linejoin="round"/>
    <path d="M304.936 163V85.636L331.799 101.109V178.473L304.936 163Z" fill="#D5EEEB" stroke="#202E35" stroke-width="1.5" stroke-linejoin="round"/>
    <path d="M358.447 163.215V85.636L331.799 101.109V178.473L358.447 163.215Z" fill="#D5EEEB" stroke="#202E35" stroke-width="1.5" stroke-linejoin="round"/>
    <mask id="mask0" mask-type="alpha" maskUnits="userSpaceOnUse" x="297" y="85" width="77" height="60">
        <rect x="298.339" y="85.7739" width="74.035" height="57.9086" fill="#D5EEEB" stroke="#202E35" stroke-width="1.5" stroke-linejoin="round"/>
    </mask>
    <g mask="url(#mask0)">
        <path d="M304.936 85.6349L331.799 70.162L358.446 85.6349L331.799 101.108L304.936 85.6349Z" fill="#D5EEEB" stroke="#202E35" stroke-width="1.5" stroke-linejoin="round"/>
        <path d="M304.936 163V85.6356L331.799 101.109V178.473L304.936 163Z" fill="#D5EEEB" stroke="#202E35" stroke-width="1.5" stroke-linejoin="round"/>
        <path d="M358.447 163.215V85.6356L331.799 101.109V178.473L358.447 163.215Z" fill="#D5EEEB" stroke="#202E35" stroke-width="1.5" stroke-linejoin="round"/>
    </g>
    <g opacity="0.8">
        <path d="M285.28 125.101L285.252 125.085L285.224 125.069C272.742 118.014 266.939 108.785 266.939 99.9566C266.939 91.1281 272.742 81.8993 285.224 74.8446C297.722 67.7806 314.146 64.1943 330.533 64.1943C346.926 64.1943 363.052 67.7823 374.971 74.8253C386.9 81.8745 392.743 91.116 392.869 99.9852C392.996 108.818 387.46 118.028 375.004 125.069C362.482 132.146 346.324 136.001 330.097 136.139C313.867 136.276 297.753 132.694 285.28 125.101Z" stroke="#EB016E" stroke-width="4"/>
    </g>
    <g filter="url(#filter0_f)">
        <path d="M313.532 82.8947L331.154 72.5795L348.991 82.8947L331.154 92.9951L313.532 82.8947Z" fill="#FF538E" fill-opacity="0.4"/>
    </g>
    <g opacity="0.4">
        <path d="M316.665 313.018L351.04 293.218L385.141 313.018L351.04 332.819L316.665 313.018Z" fill="#CDE5E2"/>
        <path d="M316.665 366.37V313.019L351.04 332.82V386.171L316.665 366.37Z" fill="#C4D9D6"/>
        <path d="M385.141 366.645V313.019L351.04 332.82V386.171L385.141 366.645Z" fill="#C9DFDC"/>
    </g>
    <path d="M167.861 203.799L202.237 183.998L236.338 203.799L202.237 223.599L167.861 203.799Z" fill="#CDE5E2"/>
    <path d="M167.861 257.151V203.8L202.237 223.6V276.951L167.861 257.151Z" fill="#C4D9D6"/>
    <path d="M236.338 257.426V203.8L202.237 223.6V276.951L236.338 257.426Z" fill="#C9DFDC"/>
    <path d="M568.09 171.546L602.466 151.745L636.567 171.546L602.466 191.346L568.09 171.546Z" fill="#CDE5E2"/>
    <path d="M568.09 224.898V171.547L602.466 191.347V244.698L568.09 224.898Z" fill="#C4D9D6"/>
    <path d="M636.567 225.173V171.547L602.466 191.347V244.698L636.567 225.173Z" fill="#C9DFDC"/>
    <path d="M208.313 217.217L246.952 194.962L285.281 217.217L246.952 239.473L208.313 217.217Z" fill="#CDE5E2"/>
    <path d="M208.313 328.496V217.218L246.952 239.474V350.751L208.313 328.496Z" fill="#C4D9D6"/>
    <path d="M285.281 328.805V217.218L246.952 239.474V350.751L285.281 328.805Z" fill="#C9DFDC"/>
    <path d="M226.723 255.005L265.361 232.749L303.69 255.005L265.361 277.26L226.723 255.005Z" fill="#CDE5E2"/>
    <path d="M226.723 366.283V255.005L265.361 277.261V388.539L226.723 366.283Z" fill="#C4D9D6"/>
    <path d="M303.69 366.592V255.005L265.361 277.261V388.539L303.69 366.592Z" fill="#C9DFDC"/>
    <path d="M529.24 212.851L567.878 190.595L606.207 212.851L567.878 235.106L529.24 212.851Z" fill="#CDE5E2"/>
    <path d="M529.24 324.129V212.851L567.878 235.107V346.385L529.24 324.129Z" fill="#C4D9D6"/>
    <path d="M606.207 324.438V212.851L567.878 235.107V346.385L606.207 324.438Z" fill="#C9DFDC"/>
    <path d="M488.191 306.422L522.567 286.621L556.668 306.422L522.567 326.222L488.191 306.422Z" fill="#CDE5E2"/>
    <path d="M488.191 359.773V306.422L522.567 326.223V379.574L488.191 359.773Z" fill="#C4D9D6"/>
    <path d="M556.668 360.048V306.422L522.567 326.223V379.574L556.668 360.048Z" fill="#C9DFDC"/>
    <g opacity="0.7">
        <path d="M218.666 191.756L218.653 191.748L218.639 191.74C187.341 174.05 171.911 150.371 171.911 126.891C171.911 103.412 187.341 79.733 218.639 62.0432C249.944 44.3487 290.839 35.4744 331.443 35.4744C372.049 35.4744 412.25 44.3496 442.177 62.0335C472.109 79.7206 487.559 103.406 487.894 126.906C488.23 150.387 473.478 174.057 442.194 191.74C410.876 209.441 370.659 218.994 330.408 219.335C290.155 219.676 249.96 210.804 218.666 191.756Z" stroke="#EB016E" stroke-width="2"/>
    </g>
    <path d="M313.532 55.0396L331.154 44.7244L348.991 55.0396L331.154 65.14L313.532 55.0396Z" fill="#FF538E"/>
    <path d="M331.154 85.5553V65.1397L348.991 55.0393V75.4549L331.154 85.5553Z" fill="#EB386E"/>
    <path d="M313.532 75.4549V55.0393L331.154 65.1397V85.5553L313.532 75.4549Z" fill="#D62C5E"/>
    <path opacity="0.5" d="M138.447 289.947L138.44 289.943L138.433 289.939C84.5085 259.46 57.6558 218.498 57.6558 177.636C57.6558 136.773 84.5085 95.8112 138.433 65.3323C192.361 34.8512 262.733 19.597 332.543 19.597C402.355 19.597 471.547 34.8516 523.122 65.3275C574.699 95.805 601.562 136.77 602.146 177.643C602.729 218.506 577.048 259.464 523.13 289.939C469.196 320.423 399.995 336.849 330.777 337.436C261.558 338.022 192.369 322.769 138.447 289.947Z" stroke="#EB016E"/>
    <defs>
        <filter id="filter0_f" x="303.532" y="62.5795" width="55.4587" height="40.4156" filterUnits="userSpaceOnUse" color-interpolation-filters="sRGB">
            <feFlood flood-opacity="0" result="BackgroundImageFix"/>
            <feBlend mode="normal" in="SourceGraphic" in2="BackgroundImageFix" result="shape"/>
            <feGaussianBlur stdDeviation="5" result="effect1_foregroundBlur"/>
        </filter>
    </defs>
</svg>
