<svg width="320" height="226" viewBox="0 0 320 226" fill="none" xmlns="http://www.w3.org/2000/svg">
    <g opacity="0.4">
        <path d="M79.9668 9.20238L94.9963 0.54541L109.905 9.20238L94.9963 17.8594L79.9668 9.20238Z" fill="#CDE5E2"/>
        <path d="M79.9668 52.4873V9.20239L94.9963 17.8594V61.1442L79.9668 52.4873Z" fill="#C4D9D6"/>
        <path d="M109.905 52.6075V9.20239L94.9961 17.8594V61.1442L109.905 52.6075Z" fill="#C9DFDC"/>
    </g>
    <g opacity="0.4">
        <path d="M122.842 11.1156L136.598 3.19189L150.244 11.1156L136.598 19.0392L122.842 11.1156Z" fill="#CDE5E2"/>
        <path d="M122.841 50.7343V11.116L136.598 19.0396V58.6579L122.841 50.7343Z" fill="#C4D9D6"/>
        <path d="M150.243 50.8443V11.116L136.597 19.0396V58.6579L150.243 50.8443Z" fill="#C9DFDC"/>
    </g>
    <g opacity="0.4">
        <path d="M11.1572 46.663L22.3024 40.2434L33.3584 46.663L22.3024 53.0826L11.1572 46.663Z" fill="#CDE5E2"/>
        <path d="M11.1572 63.9606V46.6633L22.3024 53.083V70.3803L11.1572 63.9606Z" fill="#C4D9D6"/>
        <path d="M33.3587 64.0498V46.6633L22.3027 53.083V70.3803L33.3587 64.0498Z" fill="#C9DFDC"/>
    </g>
    <g opacity="0.5">
        <path d="M195.641 35.6787L214.42 24.8618L233.049 35.6787L214.42 46.4956L195.641 35.6787Z" fill="#CDE5E2"/>
        <path d="M195.64 64.8248V35.6793L214.419 46.4962V75.6417L195.64 64.8248Z" fill="#C4D9D6"/>
        <path d="M233.048 64.975V35.6793L214.419 46.4962V75.6417L233.048 64.975Z" fill="#C9DFDC"/>
    </g>
    <g opacity="0.4">
        <path d="M35.062 155.011L53.8413 144.194L72.4704 155.011L53.8413 165.828L35.062 155.011Z" fill="#CDE5E2"/>
        <path d="M35.061 184.157V155.012L53.8403 165.829V194.974L35.061 184.157Z" fill="#C4D9D6"/>
        <path d="M72.4699 184.307V155.012L53.8408 165.829V194.974L72.4699 184.307Z" fill="#C9DFDC"/>
    </g>
    <path d="M139.577 89.724L160.685 77.5659L181.624 89.724L160.685 101.882L139.577 89.724Z" fill="#D5EEEB" stroke="#202E35" stroke-linejoin="round"/>
    <path d="M139.577 150.515V89.7242L160.685 101.882V162.673L139.577 150.515Z" fill="#D5EEEB" stroke="#202E35" stroke-linejoin="round"/>
    <path d="M181.624 150.684V89.7242L160.685 101.882V162.673L181.624 150.684Z" fill="#D5EEEB" stroke="#202E35" stroke-linejoin="round"/>
    <path d="M208.059 73.0442L229.167 60.8861L250.106 73.0442L229.167 85.2023L208.059 73.0442Z" fill="#CDE5E2"/>
    <path d="M208.059 133.835V73.0448L229.166 85.2029V145.993L208.059 133.835Z" fill="#C4D9D6"/>
    <path d="M250.105 134.004V73.0448L229.167 85.2029V145.993L250.105 134.004Z" fill="#C9DFDC"/>
    <path d="M196.04 127.52L217.148 115.362L238.087 127.52L217.148 139.678L196.04 127.52Z" fill="#CDE5E2"/>
    <path d="M196.04 188.311V127.52L217.148 139.678V200.469L196.04 188.311Z" fill="#C4D9D6"/>
    <path d="M238.087 188.48V127.52L217.148 139.678V200.469L238.087 188.48Z" fill="#C9DFDC"/>
    <path d="M199.589 173.314L214.666 164.63L229.623 173.314L214.666 181.998L199.589 173.314Z" fill="#CDE5E2"/>
    <path d="M199.589 216.736V173.315L214.666 181.999V225.421L199.589 216.736Z" fill="#C4D9D6"/>
    <path d="M229.624 216.857V173.315L214.667 181.999V225.421L229.624 216.857Z" fill="#C9DFDC"/>
    <g opacity="0.3">
        <path d="M303.335 47.8692L318.412 39.1848L333.368 47.8692L318.412 56.5535L303.335 47.8692Z" fill="#CDE5E2"/>
        <path d="M303.334 71.2689V47.8694L318.411 56.5537V79.9532L303.334 71.2689Z" fill="#C4D9D6"/>
        <path d="M333.368 71.3895V47.8694L318.411 56.5537V79.9532L333.368 71.3895Z" fill="#C9DFDC"/>
    </g>
    <g opacity="0.5">
        <path d="M43.0698 38.8822L61.8491 28.0653L80.4782 38.8822L61.8491 49.6991L43.0698 38.8822Z" fill="#CDE5E2"/>
        <path d="M43.0698 68.0279V38.8824L61.8491 49.6993V78.8448L43.0698 68.0279Z" fill="#C4D9D6"/>
        <path d="M80.4787 68.1781V38.8824L61.8496 49.6993V78.8448L80.4787 68.1781Z" fill="#C9DFDC"/>
    </g>
    <g opacity="0.5">
        <path d="M1.4248 83.3314L20.2041 72.5145L38.8332 83.3314L20.2041 94.1483L1.4248 83.3314Z" fill="#CDE5E2"/>
        <path d="M1.42432 112.477V83.3319L20.2036 94.1488V123.294L1.42432 112.477Z" fill="#C4D9D6"/>
        <path d="M38.8327 112.628V83.3319L20.2036 94.1488V123.294L38.8327 112.628Z" fill="#C9DFDC"/>
    </g>
    <path d="M156.396 37.6806L175.175 26.8638L193.804 37.6806L175.175 48.4975L156.396 37.6806Z" fill="#CDE5E2"/>
    <path d="M156.396 66.8265V37.681L175.175 48.4979V77.6434L156.396 66.8265Z" fill="#C4D9D6"/>
    <path d="M193.804 66.9767V37.681L175.175 48.4979V77.6434L193.804 66.9767Z" fill="#C9DFDC"/>
    <path d="M32.6582 73.8608L53.766 61.7028L74.7049 73.8608L53.766 86.0189L32.6582 73.8608Z" fill="#CDE5E2"/>
    <path d="M32.6582 134.651V73.8611L53.766 86.0192V146.81L32.6582 134.651Z" fill="#C4D9D6"/>
    <path d="M74.705 134.82V73.8611L53.7661 86.0192V146.81L74.705 134.82Z" fill="#C9DFDC"/>
    <path d="M85.9189 31.0132L107.027 18.8551L127.966 31.0132L107.027 43.1713L85.9189 31.0132Z" fill="#CDE5E2"/>
    <path d="M85.9185 91.8037V31.0133L107.026 43.1714V103.962L85.9185 91.8037Z" fill="#C4D9D6"/>
    <path d="M127.965 91.9726V31.0133L107.026 43.1714V103.962L127.965 91.9726Z" fill="#C9DFDC"/>
    <g opacity="0.5">
        <path d="M252.904 25.4069L274.012 13.2488L294.951 25.4069L274.012 37.5649L252.904 25.4069Z" fill="#CDE5E2"/>
        <path d="M252.903 86.1974V25.407L274.011 37.5651V98.3555L252.903 86.1974Z" fill="#C4D9D6"/>
        <path d="M294.95 86.3663V25.407L274.011 37.5651V98.3555L294.95 86.3663Z" fill="#C9DFDC"/>
    </g>
    <path d="M258.343 59.2824L279.451 47.1243L300.39 59.2824L279.451 71.4404L258.343 59.2824Z" fill="#CDE5E2"/>
    <path d="M258.343 120.073V59.2825L279.451 71.4406V132.231L258.343 120.073Z" fill="#C4D9D6"/>
    <path d="M300.39 120.242V59.2825L279.451 71.4406V132.231L300.39 120.242Z" fill="#C9DFDC"/>
    <g opacity="0.8">
        <path d="M-20.6001 116.308L0.507689 104.15L21.4466 116.308L0.507689 128.466L-20.6001 116.308Z" fill="#CDE5E2"/>
        <path d="M-20.6006 177.099V116.308L0.5072 128.467V189.257L-20.6006 177.099Z" fill="#C4D9D6"/>
        <path d="M21.4462 177.268V116.308L0.507324 128.467V189.257L21.4462 177.268Z" fill="#C9DFDC"/>
    </g>
    <path d="M145.984 47.2111L160.659 38.7583L175.217 47.2111L160.659 55.6638L145.984 47.2111Z" fill="#D5EEEB" stroke="#202E35" stroke-linejoin="round"/>
    <path d="M145.984 89.4752V47.2114L160.659 55.6642V97.928L145.984 89.4752Z" fill="#D5EEEB" stroke="#202E35" stroke-linejoin="round"/>
    <path d="M175.217 89.5926V47.2114L160.66 55.6642V97.928L175.217 89.5926Z" fill="#D5EEEB" stroke="#202E35" stroke-linejoin="round"/>
    <mask id="mask0" mask-type="alpha" maskUnits="userSpaceOnUse" x="141" y="46" width="43" height="34">
        <rect x="142.38" y="47.2869" width="40.4449" height="31.6351" fill="#D5EEEB" stroke="#202E35" stroke-linejoin="round"/>
    </mask>
    <g mask="url(#mask0)">
        <path d="M145.985 47.2108L160.66 38.7581L175.217 47.2108L160.66 55.6636L145.985 47.2108Z" fill="#D5EEEB" stroke="#202E35" stroke-linejoin="round"/>
        <path d="M145.984 89.475V47.2112L160.659 55.6639V97.9278L145.984 89.475Z" fill="#D5EEEB" stroke="#202E35" stroke-linejoin="round"/>
        <path d="M175.217 89.5924V47.2112L160.66 55.6639V97.9278L175.217 89.5924Z" fill="#D5EEEB" stroke="#202E35" stroke-linejoin="round"/>
    </g>
    <g opacity="0.8">
        <path d="M135.718 67.9961L135.69 67.9793L135.662 67.9633C129.018 64.2083 126.134 59.4214 126.134 55.0347C126.134 50.6481 129.018 45.8611 135.662 42.1061C142.322 38.3418 151.131 36.4054 159.968 36.4054C168.809 36.4054 177.447 38.3435 183.782 42.0868C190.127 45.8364 193.051 50.636 193.114 55.0633C193.177 59.4538 190.433 64.2229 183.815 67.9633C177.131 71.7413 168.461 73.8193 159.722 73.8933C150.979 73.9674 142.353 72.0353 135.718 67.9961Z" stroke="#EB016E" stroke-width="4"/>
    </g>
    <g filter="url(#filter0_f)">
        <path d="M150.68 45.7137L160.307 40.0785L170.051 45.7137L160.307 51.2314L150.68 45.7137Z" fill="#FF538E" fill-opacity="0.4"/>
    </g>
    <g opacity="0.4">
        <path d="M152.391 171.429L171.17 160.612L189.799 171.429L171.17 182.246L152.391 171.429Z" fill="#CDE5E2"/>
        <path d="M152.391 200.575V171.43L171.17 182.247V211.392L152.391 200.575Z" fill="#C4D9D6"/>
        <path d="M189.799 200.725V171.43L171.17 182.247V211.392L189.799 200.725Z" fill="#C9DFDC"/>
    </g>
    <path d="M71.1016 111.763L89.8809 100.946L108.51 111.763L89.8809 122.58L71.1016 111.763Z" fill="#CDE5E2"/>
    <path d="M71.1016 140.909V111.764L89.8809 122.581V151.726L71.1016 140.909Z" fill="#C4D9D6"/>
    <path d="M108.509 141.059V111.764L89.8804 122.581V151.726L108.509 141.059Z" fill="#C9DFDC"/>
    <path d="M289.744 94.1434L308.523 83.3265L327.152 94.1434L308.523 104.96L289.744 94.1434Z" fill="#CDE5E2"/>
    <path d="M289.744 123.29V94.144L308.523 104.961V134.106L289.744 123.29Z" fill="#C4D9D6"/>
    <path d="M327.152 123.44V94.144L308.523 104.961V134.106L327.152 123.44Z" fill="#C9DFDC"/>
    <path d="M93.2012 119.094L114.309 106.936L135.248 119.094L114.309 131.252L93.2012 119.094Z" fill="#CDE5E2"/>
    <path d="M93.1997 179.884V119.094L114.307 131.252V192.042L93.1997 179.884Z" fill="#C4D9D6"/>
    <path d="M135.247 180.053V119.094L114.308 131.252V192.042L135.247 180.053Z" fill="#C9DFDC"/>
    <path d="M103.258 139.736L124.366 127.578L145.305 139.736L124.366 151.895L103.258 139.736Z" fill="#CDE5E2"/>
    <path d="M103.257 200.527V139.737L124.365 151.895V212.685L103.257 200.527Z" fill="#C4D9D6"/>
    <path d="M145.304 200.696V139.737L124.365 151.895V212.685L145.304 200.696Z" fill="#C9DFDC"/>
    <path d="M268.521 116.708L289.628 104.55L310.567 116.708L289.628 128.866L268.521 116.708Z" fill="#CDE5E2"/>
    <path d="M268.52 177.499V116.708L289.627 128.867V189.657L268.52 177.499Z" fill="#C4D9D6"/>
    <path d="M310.566 177.668V116.708L289.627 128.867V189.657L310.566 177.668Z" fill="#C9DFDC"/>
    <path d="M246.096 167.825L264.875 157.009L283.505 167.825L264.875 178.642L246.096 167.825Z" fill="#CDE5E2"/>
    <path d="M246.096 196.971V167.826L264.875 178.643V207.788L246.096 196.971Z" fill="#C4D9D6"/>
    <path d="M283.504 197.122V167.826L264.875 178.643V207.788L283.504 197.122Z" fill="#C9DFDC"/>
    <g opacity="0.7">
        <path d="M99.0915 104.797L99.0777 104.788L99.0636 104.78C82.0535 95.1659 73.7671 82.3574 73.7671 69.749C73.7671 57.1407 82.0535 44.3322 99.0636 34.7178C116.082 25.0987 138.341 20.2621 160.465 20.2621C182.591 20.2621 204.467 25.0996 220.727 34.7081C236.993 44.3198 245.299 57.1346 245.48 69.7633C245.66 82.3736 237.741 95.1731 220.744 104.78C203.714 114.406 181.822 119.611 159.895 119.797C137.967 119.983 116.098 115.148 99.0915 104.797Z" stroke="#EB016E" stroke-width="2"/>
    </g>
    <path d="M150.681 30.497L160.307 24.8618L170.052 30.497L160.307 36.0148L150.681 30.497Z" fill="#FF538E"/>
    <path d="M160.308 47.1677V36.0147L170.052 30.4969V41.6499L160.308 47.1677Z" fill="#EB386E"/>
    <path d="M150.681 41.6499V30.4969L160.307 36.0147V47.1677L150.681 41.6499Z" fill="#D62C5E"/>
    <path opacity="0.5" d="M55.1502 158.631L55.1433 158.627L55.1362 158.623C25.7216 141.998 11.1235 119.684 11.1235 97.4701C11.1235 75.2564 25.7216 52.9426 55.1362 36.3169C84.555 19.6889 122.958 11.3613 161.066 11.3613C199.175 11.3613 236.932 19.6893 265.063 36.3121C293.196 52.9364 307.804 75.2533 308.122 97.4772C308.439 119.692 294.48 142.001 265.071 158.623C235.646 175.255 197.882 184.221 160.1 184.541C122.317 184.861 84.563 176.535 55.1502 158.631Z" stroke="#EB016E"/>
    <defs>
        <filter id="filter0_f" x="140.68" y="30.0785" width="39.3709" height="31.153" filterUnits="userSpaceOnUse" color-interpolation-filters="sRGB">
            <feFlood flood-opacity="0" result="BackgroundImageFix"/>
            <feBlend mode="normal" in="SourceGraphic" in2="BackgroundImageFix" result="shape"/>
            <feGaussianBlur stdDeviation="5" result="effect1_foregroundBlur"/>
        </filter>
    </defs>
</svg>
