<svg width="96" height="51" viewBox="0 0 96 51" fill="none" xmlns="http://www.w3.org/2000/svg">
    <path d="M64.9319 26.2129V26.1401H64.4338C64.4081 26.3326 64.4724 26.5263 64.6087 26.6674C64.745 26.8086 64.9389 26.8823 65.1369 26.8681C65.6289 26.8681 65.9266 26.571 65.9266 26.094C65.9266 25.8162 65.8127 25.5487 65.5165 25.4774V25.4685C65.7762 25.3675 65.8445 25.1015 65.8445 24.8548C65.8445 24.4388 65.597 24.1729 65.1672 24.1729C64.6798 24.1729 64.5264 24.522 64.5416 24.944H64.9972V24.889C64.9972 24.7746 65.0215 24.6171 65.1748 24.6171C65.3282 24.6171 65.3571 24.7657 65.3571 24.8831C65.3571 25.1802 65.2371 25.2293 64.9486 25.2293V25.675C65.2523 25.6646 65.3495 25.7463 65.3495 26.039C65.3495 26.1876 65.3358 26.4075 65.1202 26.4075C65.0658 26.4076 65.0138 26.3859 64.9762 26.3474C64.9386 26.309 64.9187 26.2571 64.9212 26.204" fill="white"/>
    <path d="M64.1287 24.1729H62.7414V24.6359H63.4321L62.6304 26.8699H63.1619L64.1287 24.1729Z" fill="white"/>
    <path d="M61.5801 25.3983C61.8091 25.3134 61.955 25.0843 61.9376 24.8369C61.9376 24.4702 61.6453 24.1729 61.2849 24.1729C60.9244 24.1729 60.6321 24.4702 60.6321 24.8369C60.6174 25.0823 60.761 25.309 60.9867 25.3968V25.4059C60.6647 25.5161 60.5327 25.7651 60.5327 26.1077C60.5327 26.5286 60.8681 26.8699 61.2819 26.8699C61.6956 26.8699 62.031 26.5286 62.031 26.1077C62.031 25.7741 61.9079 25.504 61.586 25.4059L61.5801 25.3983ZM61.2819 24.5517C61.4228 24.5517 61.4406 24.7358 61.4406 24.8339C61.4406 24.932 61.4406 25.1357 61.2819 25.1357C61.1528 25.1357 61.1335 24.932 61.1335 24.8339C61.1335 24.7358 61.1543 24.5547 61.2819 24.5547V24.5517ZM61.2819 26.4216C61.1024 26.4216 61.0653 26.1816 61.0653 26.0473C61.0653 25.913 61.1024 25.6625 61.2789 25.6625C61.4554 25.6625 61.5074 25.9145 61.5074 26.0473C61.5074 26.1801 61.4569 26.4216 61.2819 26.4216Z" fill="white"/>
    <path d="M59.8333 24.1729H59.0342V24.636H59.3006V26.8699H59.8333V24.1729Z" fill="white"/>
    <path d="M30.1618 24.1729H28.9678V26.8699H30.1664V26.367H29.557V25.7598H30.0874V25.26H29.557V24.6728H30.1618V24.1729Z" fill="white"/>
    <path d="M35.3161 26.2711C35.2225 26.2694 35.1321 26.3053 35.0653 26.3706C34.9985 26.4359 34.9609 26.5251 34.9609 26.6183C34.9609 26.7119 34.9984 26.8017 35.065 26.8678C35.1317 26.9338 35.222 26.9707 35.3161 26.9703C35.4087 26.9694 35.4972 26.9318 35.5618 26.8657C35.6264 26.7996 35.6618 26.7105 35.6601 26.6183C35.6614 26.5267 35.6257 26.4383 35.561 26.3731C35.4964 26.3078 35.4081 26.2711 35.3161 26.2711Z" fill="white"/>
    <path d="M34.5618 24.1729H33.0635V24.6727H33.5197V26.8699H34.1041V24.6727H34.5618V24.1729Z" fill="white"/>
    <path d="M32.1962 24.802V24.2967C32.0422 24.2157 31.8714 24.1734 31.698 24.1734C31.4979 24.1657 31.3041 24.2449 31.1647 24.3912C31.0254 24.5374 30.9537 24.737 30.9675 24.9403C30.9675 25.3178 31.1633 25.5139 31.4862 25.7131C31.641 25.8231 31.8164 25.8944 31.8164 26.0936C31.814 26.1766 31.7776 26.2548 31.716 26.3093C31.6544 26.3638 31.5732 26.3896 31.492 26.3804C31.3408 26.3788 31.1937 26.3295 31.0712 26.2392V26.7356C31.2171 26.8223 31.383 26.8679 31.5519 26.8679C31.7701 26.8837 31.9844 26.803 32.1397 26.6464C32.2951 26.4898 32.3764 26.2725 32.3628 26.0505C32.3628 25.343 31.5139 25.3163 31.5139 24.8882C31.5126 24.8148 31.5425 24.7444 31.596 24.6951C31.6495 24.6459 31.7213 24.6225 31.793 24.6311C31.9441 24.6396 32.0881 24.6992 32.2021 24.8005" fill="white"/>
    <path d="M43.0673 10.2278C40.4655 10.2534 35.7799 10.4055 33.6825 10.4764C33.0215 10.499 32.6285 10.5276 32.6285 10.5276C32.4109 10.5418 32.218 10.6726 32.1241 10.8696C32.0744 10.9872 32.0413 11.0971 32.0413 11.0971C32.0413 11.0971 32.0037 11.2056 31.9751 11.3307C31.9343 11.544 32.0114 11.7627 32.1768 11.9032C32.1768 11.9032 32.478 12.1594 33.0019 12.5677C34.6582 13.859 38.3576 16.7369 40.4475 18.2933C39.6675 20.7779 38.3636 25.2846 37.7839 27.3021C37.6017 27.938 37.5069 28.3237 37.5069 28.3237C37.4532 28.5355 37.5183 28.7598 37.677 28.9098C37.7734 28.9942 37.8683 29.0605 37.8683 29.0605C37.8683 29.0605 37.9601 29.1313 38.07 29.1961C38.2598 29.2978 38.4894 29.2903 38.6723 29.1765C38.6723 29.1765 39.0095 28.9671 39.5576 28.5964C41.2951 27.4212 45.1752 24.7874 47.2967 23.2776C49.4167 24.7844 53.2968 27.4212 55.0343 28.5964C55.5824 28.9671 55.9197 29.1765 55.9197 29.1765C56.1025 29.2903 56.3321 29.2978 56.5219 29.1961C56.5914 29.1544 56.6588 29.1091 56.7237 29.0605C56.7237 29.0605 56.8186 28.9957 56.9149 28.9098C57.0736 28.7598 57.1387 28.5355 57.0851 28.3237C57.0851 28.3237 56.9902 27.938 56.8065 27.3021C56.2268 25.2846 54.9229 20.7779 54.143 18.2933C56.2329 16.7414 59.9338 13.862 61.5885 12.5677C62.1095 12.1609 62.4136 11.9032 62.4136 11.9032C62.5812 11.7634 62.6601 11.5438 62.6199 11.3292C62.5913 11.2041 62.5521 11.0956 62.5521 11.0956C62.5521 11.0956 62.519 10.9856 62.4693 10.8666C62.3755 10.6696 62.1825 10.5388 61.9649 10.5246C61.9649 10.5246 61.5689 10.4944 60.911 10.4734C58.8136 10.4025 54.1355 10.2504 51.5261 10.2247C50.7056 7.75971 49.1186 3.34647 48.4019 1.37264C48.176 0.750357 48.0255 0.382712 48.0255 0.382712C47.9444 0.180012 47.76 0.0370632 47.5437 0.00904044C47.4187 0 47.3028 0 47.3028 0C47.3028 0 47.1868 0 47.0603 0.0075337C46.844 0.0355565 46.6596 0.178505 46.5785 0.381205C46.5785 0.381205 46.428 0.74885 46.2021 1.37113C45.4869 3.34496 43.8939 7.7567 43.0658 10.2262L43.0673 10.2278Z" fill="white"/>
    <path d="M41.7294 17.8583L38.3851 28.1355C38.3793 28.1531 38.3854 28.1724 38.4001 28.1836C38.4001 28.1836 38.4242 28.2047 38.4513 28.2243C38.4784 28.2438 38.5055 28.2604 38.5055 28.2604C38.5207 28.2714 38.5414 28.2714 38.5566 28.2604L47.2982 21.9041L56.0397 28.2604C56.055 28.2714 56.0756 28.2714 56.0909 28.2604C56.0909 28.2604 56.1195 28.2438 56.1451 28.2243C56.1707 28.2047 56.1963 28.1836 56.1963 28.1836C56.2114 28.1727 56.2175 28.1531 56.2113 28.1355L52.867 17.8568L61.6131 11.508C61.6284 11.4972 61.635 11.4778 61.6296 11.4599C61.6296 11.4599 61.6296 11.4282 61.6116 11.3966C61.5935 11.365 61.589 11.3349 61.589 11.3349C61.5836 11.317 61.5671 11.3047 61.5484 11.3048H50.7403L47.405 1.02913C47.3993 1.01147 47.383 0.999393 47.3644 0.999028C47.3644 0.999028 47.3328 0.999028 47.2982 0.999028C47.2636 0.999028 47.2335 0.999028 47.2335 0.999028C47.2143 0.998744 47.1973 1.01095 47.1913 1.02913L43.856 11.3093H33.048C33.0289 11.3091 33.0118 11.3213 33.0059 11.3394C33.0059 11.3394 32.9923 11.3695 32.9833 11.4012C32.9743 11.4328 32.9652 11.4644 32.9652 11.4644C32.9598 11.4823 32.9665 11.5017 32.9818 11.5125L41.7294 17.8583Z" fill="white"/>
    <path d="M92.9964 33.3629C91.7829 33.3629 90.7991 34.3464 90.7988 35.5599C90.7986 36.7734 91.7819 37.7574 92.9954 37.758C94.2089 37.7585 95.1931 36.7754 95.1939 35.5619C95.1943 34.9788 94.963 34.4195 94.5508 34.007C94.1387 33.5946 93.5795 33.3629 92.9964 33.3629ZM92.9964 37.3164C92.2864 37.3182 91.6453 36.8919 91.3723 36.2364C91.0993 35.581 91.2483 34.8256 91.7497 34.3229C92.2511 33.8202 93.0061 33.6693 93.6622 33.9406C94.3184 34.2119 94.7463 34.8519 94.7463 35.5619C94.7439 36.5281 93.9626 37.3114 92.9964 37.3164Z" fill="white"/>
    <path d="M93.6409 35.5362C93.8761 35.4255 94.0202 35.1862 94.0059 34.9301C94.0059 34.4194 93.5438 34.2618 93.2635 34.2618H92.0977V36.6591H92.6552V35.7226H92.8646C93.1465 35.7226 93.3097 35.7969 93.3883 36.053C93.4409 36.2593 93.5078 36.4618 93.5885 36.6591H94.1953C94.0883 36.4776 94.0123 36.28 93.9705 36.0742C93.9558 35.8529 93.8329 35.6523 93.6409 35.5362ZM93.108 35.2468H92.6613V34.6952H93.0541C93.225 34.6952 93.4299 34.7649 93.4299 34.9573C93.431 35.0398 93.3967 35.1189 93.3354 35.1752C93.2741 35.2315 93.1915 35.2597 93.108 35.2528V35.2468Z" fill="white"/>
    <path d="M24.4488 46.4968C23.8241 47.1272 23.0118 47.7546 22.213 48.0086C21.4623 48.2535 19.3107 48.4424 18.6785 46.648C18.5419 46.261 18.653 46.1416 18.9999 46.0433C19.5179 45.8922 20.8542 45.4931 22.2641 44.9609C23.2276 44.6099 24.1574 44.1712 25.0418 43.6503C25.6815 43.227 25.7776 42.6314 25.4923 41.9874C24.5914 39.9557 22.5629 37.8287 19.186 38.4757C16.5134 38.9972 14.584 41.4266 14.584 44.2111C14.584 47.6563 16.6455 49.6714 19.2701 50.2958C21.6965 50.8778 24.5494 49.6911 25.7686 47.7017C26.2535 46.9352 24.8902 46.0252 24.4488 46.4968ZM18.3722 43.7848C18.1095 43.0547 18.3197 40.8188 19.5434 40.3956C20.8302 39.9511 21.6215 40.6193 22.0058 41.9254C22.156 42.4092 22.1169 42.9201 21.9593 43.1121C21.7311 43.3903 21.3242 43.5581 20.9578 43.6805L19.9938 43.9965C19.0464 44.3275 18.5945 44.3925 18.3722 43.7848Z" fill="white"/>
    <path d="M55.916 46.4336C55.2914 47.0591 54.4792 47.6816 53.6804 47.9336C52.9297 48.1766 50.7782 48.3641 50.1461 46.5836C50.0095 46.1996 50.1206 46.0811 50.4674 45.9836C50.9854 45.8336 52.3217 45.4376 53.7315 44.9096C54.695 44.5614 55.6247 44.1261 56.5091 43.6092C57.1487 43.1892 57.2448 42.5982 56.9595 41.9592C56.0587 39.9432 54.0303 37.8328 50.6536 38.4748C47.9706 38.9863 46.0488 41.3997 46.0488 44.1597C46.0488 47.5781 48.1102 49.5775 50.7347 50.197C53.1595 50.7745 56.0121 49.597 57.2328 47.6231C57.7192 46.8686 56.3574 45.9656 55.916 46.4336ZM49.8384 43.7427C49.6882 43.3092 49.6882 42.3417 49.9885 41.5437C50.1882 41.0082 50.4855 40.5897 51.008 40.3797C51.4838 40.1622 52.0346 40.1828 52.4928 40.4352C52.9433 40.6947 53.2646 41.2062 53.4687 41.8977C53.6189 42.3777 53.5798 42.8847 53.4237 43.0752C53.1955 43.3512 52.8397 43.4907 52.4223 43.6392C52.0049 43.7877 51.634 43.9077 51.4584 43.9632C50.5065 44.2617 50.0606 44.3457 49.8384 43.7427Z" fill="white"/>
    <path d="M79.9893 46.4336C79.3648 47.0591 78.5525 47.6816 77.7537 47.9336C77.003 48.1766 74.8515 48.3641 74.2194 46.5836C74.0828 46.1996 74.1939 46.0811 74.5407 45.9836C75.0602 45.8336 76.395 45.4376 77.8048 44.9096C78.7683 44.5614 79.698 44.1261 80.5824 43.6092C81.222 43.1892 81.3181 42.5982 81.0328 41.9592C80.132 39.9432 78.1036 37.8328 74.7269 38.4748C72.0439 38.9863 70.1221 41.3997 70.1221 44.1597C70.1221 47.5781 72.1835 49.5775 74.808 50.197C77.2343 50.7745 80.0869 49.597 81.3061 47.6231C81.7925 46.8686 80.4293 45.9656 79.9893 46.4336ZM73.9116 43.7427C73.7615 43.3092 73.7615 42.3417 74.0618 41.5437C74.2615 41.0082 74.5587 40.5897 75.0812 40.3797C75.557 40.1622 76.1079 40.1828 76.5661 40.4352C77.0165 40.6947 77.3379 41.2062 77.542 41.8977C77.6922 42.3777 77.6531 42.8847 77.497 43.0752C77.2688 43.3512 76.913 43.4907 76.4956 43.6392C76.0782 43.7877 75.7073 43.9077 75.5317 43.9632C74.5798 44.2617 74.1338 44.3457 73.9116 43.7427Z" fill="white"/>
    <path d="M9.03067 47.1035C9.03067 47.5617 8.88021 48.0651 8.53113 48.2243L7.76376 48.5699C7.64127 48.6242 7.56949 48.7528 7.58772 48.8854C7.58807 48.9237 7.59159 48.9619 7.59825 48.9996L7.68853 49.8695C7.72915 50.1054 7.89015 50.1445 8.20462 50.1445H13.7643C14.0772 50.1445 14.2397 50.1054 14.2804 49.8695L14.3706 48.9996C14.3773 48.9619 14.3808 48.9237 14.3812 48.8854C14.3994 48.7528 14.3276 48.6242 14.2051 48.5699L13.4378 48.2243C13.0842 48.0666 12.9382 47.5632 12.9382 47.1035V37.4878C12.9382 37.0295 13.0887 36.5262 13.4378 36.367L14.2051 36.0199C14.3276 35.9656 14.3994 35.837 14.3812 35.7044C14.3808 35.6661 14.3773 35.6279 14.3706 35.5902L14.2804 34.9366C14.2397 34.7007 14.0787 34.6617 13.7643 34.6617H8.46793C8.15497 34.6617 7.99247 34.7007 7.95184 34.9366L7.86156 35.5902C7.85489 35.6279 7.85137 35.6661 7.85103 35.7044C7.8328 35.837 7.90458 35.9656 8.02707 36.0199L8.6515 36.367C9.0081 36.5713 9.03217 37.028 9.03217 37.4878V40.1682C9.03419 40.2586 8.99983 40.3461 8.93677 40.411C8.87371 40.476 8.78722 40.513 8.69664 40.5137H5.68735C5.50038 40.5137 5.34881 40.3624 5.34881 40.1757V37.4938C5.34881 37.0356 5.37288 36.5773 5.72948 36.373L6.35541 36.0259C6.47791 35.9716 6.54968 35.843 6.53146 35.7104C6.5311 35.6721 6.52758 35.6339 6.52093 35.5962L6.43065 34.9426C6.39002 34.7068 6.22902 34.6677 5.91455 34.6677H0.619714C0.305244 34.6677 0.144247 34.7068 0.103622 34.9426L0.013343 35.5962C0.00692729 35.6324 0.00340537 35.6691 0.00281052 35.7059C-0.0154159 35.8385 0.0563589 35.9671 0.178854 36.0214L0.946222 36.3685C1.29981 36.5262 1.44576 37.0295 1.44576 37.4893V47.105C1.44576 47.5632 1.2953 48.0666 0.946222 48.2258L0.178854 48.5714C0.0569524 48.6255 -0.0147039 48.7533 0.00281052 48.8854C0.00318874 48.9237 0.00671138 48.9619 0.013343 48.9996L0.103622 49.8695C0.144247 50.1054 0.305244 50.1445 0.619714 50.1445H6.17185C6.48481 50.1445 6.64732 50.1054 6.68794 49.8695L6.77822 48.9996C6.78486 48.9619 6.78839 48.9237 6.78875 48.8854C6.80698 48.7528 6.7352 48.6242 6.61271 48.5699L5.84534 48.2243C5.49024 48.0666 5.3458 47.5632 5.3458 47.1035V43.1971C5.3458 43.0104 5.49737 42.8591 5.68434 42.8591H8.69363C8.88002 42.8599 9.03067 43.011 9.03067 43.1971V47.1035Z" fill="white"/>
    <path d="M28.968 38.2575C30.0713 38.2575 30.9658 37.3854 30.9658 36.3096C30.9658 35.2339 30.0713 34.3618 28.968 34.3618C27.8646 34.3618 26.9702 35.2339 26.9702 36.3096C26.9702 37.3854 27.8646 38.2575 28.968 38.2575Z" fill="white"/>
    <path d="M26.8591 50.1424C26.5562 50.1424 26.4048 50.1047 26.3609 49.8773L26.273 49.0082C26.2697 48.9716 26.2697 48.9348 26.273 48.8983C26.2598 48.7731 26.3263 48.653 26.4396 48.597L27.0454 48.2641C27.3786 48.1045 27.527 47.6285 27.527 47.1872V41.6866C27.527 41.2272 27.4483 40.6323 27.0409 40.4364L26.6562 40.2165C26.5329 40.1621 26.4607 40.0332 26.479 39.9002C26.4793 39.8619 26.4829 39.8236 26.4896 39.7858L26.5805 39.1321C26.6214 38.8941 26.7834 38.8564 27.0999 38.8564H30.8664C31.0546 38.8564 31.2071 39.0082 31.2071 39.1953V47.1887C31.2071 47.63 31.3586 48.106 31.6887 48.2657L32.2945 48.5985C32.4078 48.6545 32.4743 48.7746 32.4611 48.8998C32.4645 48.9363 32.4645 48.9731 32.4611 49.0097L32.3748 49.8788C32.3354 50.1062 32.1794 50.1439 31.8765 50.1439L26.8591 50.1424Z" fill="white"/>
    <path d="M38.1884 39.4639L38.7805 39.1768C39.5339 38.8251 41.006 38.1939 42.2235 38.5757C43.2783 38.9108 44.1823 39.6758 44.1823 41.6806V47.7537C44.1823 48.0122 44.1944 48.1189 44.3149 48.185C44.4762 48.2737 44.7579 48.0092 45.0277 47.8709C45.2974 47.7326 45.4511 47.8949 45.6168 48.0783C45.7675 48.2391 45.9378 48.466 45.7961 48.7636C45.3441 49.7029 44.3391 50.2439 43.1592 50.2439C42.0457 50.2439 40.6263 49.6067 40.6263 47.9415V42.1059C40.6263 41.2117 39.9769 40.9036 39.4721 40.9652C38.7097 41.0599 38.1552 41.6956 38.1552 42.8288V47.1991C38.1552 47.6394 38.3059 48.1144 38.6344 48.2737L39.2371 48.6058C39.3499 48.6616 39.416 48.7815 39.4028 48.9064C39.4062 48.9429 39.4062 48.9796 39.4028 49.0161L39.3154 49.8832C39.2763 50.1102 39.1211 50.1477 38.8197 50.1477H33.8473C33.546 50.1477 33.3953 50.1102 33.3516 49.8832L33.2657 49.0161C33.2623 48.9796 33.2623 48.9429 33.2657 48.9064C33.2526 48.7815 33.3187 48.6616 33.4314 48.6058L34.0342 48.2737C34.3657 48.1144 34.5133 47.6394 34.5133 47.1991V41.7106C34.5133 41.2523 34.435 40.6586 34.0311 40.4633L33.6484 40.2438C33.5258 40.1895 33.4539 40.0609 33.4721 39.9282C33.4724 39.8899 33.4759 39.8517 33.4827 39.814L33.5731 39.1618C33.6138 38.9243 33.775 38.8868 34.0899 38.8868H37.6293C37.8444 38.8791 38.0371 39.0186 38.0964 39.2249L38.1884 39.4639Z" fill="white"/>
    <path d="M86.8355 39.4639L87.4276 39.1769C88.181 38.8252 89.653 38.194 90.8704 38.5757C91.9251 38.9109 92.8291 39.6758 92.8291 41.6806V47.7537C92.8291 48.0122 92.8411 48.1189 92.9617 48.185C93.1229 48.2737 93.4061 48.0092 93.6743 47.8709C93.9425 47.7327 94.0977 47.895 94.2634 48.0783C94.4141 48.2392 94.5843 48.4661 94.4412 48.7637C93.9892 49.7029 92.9843 50.244 91.8045 50.244C90.6911 50.244 89.2718 49.6068 89.2718 47.9416V42.106C89.2718 41.2117 88.6224 40.9037 88.1177 40.9653C87.3553 41.06 86.8009 41.6957 86.8009 42.8288V47.1992C86.8009 47.6395 86.9515 48.1144 87.28 48.2737L87.8826 48.6059C87.9954 48.6617 88.0615 48.7815 88.0484 48.9064C88.0517 48.9429 88.0517 48.9796 88.0484 49.0161L87.961 49.8833C87.9233 50.1102 87.7666 50.1478 87.4653 50.1478H82.4933C82.1919 50.1478 82.0413 50.1102 81.9976 49.8833L81.9117 49.0161C81.9083 48.9796 81.9083 48.9429 81.9117 48.9064C81.8983 48.7819 81.9637 48.6621 82.0759 48.6059L82.6786 48.2737C83.0101 48.1144 83.1577 47.6395 83.1577 47.1992V41.7107C83.1577 41.2523 83.0794 40.6587 82.6756 40.4633L82.2929 40.2439C82.1702 40.1896 82.0984 40.0609 82.1166 39.9283C82.117 39.89 82.1205 39.8518 82.1272 39.8141L82.2175 39.1618C82.2582 38.9244 82.4194 38.8868 82.7343 38.8868H86.2524C86.4673 38.8797 86.6597 39.019 86.7195 39.225L86.8355 39.4639Z" fill="white"/>
    <path d="M68.7303 47.3459C68.9478 47.7307 69.2657 48.0498 69.6502 48.2692L70.2534 48.6015C70.3663 48.6574 70.4324 48.7773 70.4193 48.9023C70.4225 48.9388 70.4225 48.9755 70.4193 49.0121L70.3333 49.8797C70.2941 50.1068 70.1388 50.1444 69.8372 50.1444H66.8151C66.3009 50.1444 66.2617 49.994 66.0295 49.5775L63.5066 44.997L62.5596 45.8993V47.188C62.5596 47.6286 62.7677 48.0902 63.1115 48.2632L63.7147 48.5955C63.8276 48.6514 63.8937 48.7713 63.8806 48.8963C63.884 48.9328 63.884 48.9695 63.8806 49.006L63.7931 49.8737C63.7539 50.1008 63.5986 50.1384 63.297 50.1384H58.3206C58.019 50.1384 57.8682 50.1008 57.8244 49.8737L57.7385 49.006C57.735 48.9695 57.735 48.9328 57.7385 48.8963C57.7253 48.7713 57.7915 48.6514 57.9044 48.5955L58.5076 48.2632C58.8393 48.1038 58.9871 47.6286 58.9871 47.188V37.3624C58.9871 36.9218 58.8499 36.4601 58.5076 36.2872L57.9044 35.9549C57.7915 35.899 57.7253 35.7791 57.7385 35.6541C57.735 35.6176 57.735 35.5808 57.7385 35.5443L57.8244 34.9263C57.8636 34.6992 58.019 34.6616 58.3206 34.6616H61.9322C62.1029 34.6616 62.2665 34.7293 62.387 34.8498C62.5075 34.9702 62.575 35.1336 62.5746 35.3037V42.7639L64.1807 41.3188C64.4099 41.1218 64.7839 40.794 64.9347 40.6496C65.0855 40.5053 65.1111 40.2872 64.903 40.1985L64.336 39.9428C64.2233 39.8945 64.1571 39.7767 64.1746 39.6556C64.1753 39.6208 64.1788 39.5861 64.1852 39.5519L64.2681 38.7594C64.3043 38.5443 64.4521 38.5083 64.7386 38.5083H69.044C69.3305 38.5083 69.4783 38.5428 69.5145 38.7594L69.5974 39.5519C69.6023 39.5863 69.6053 39.6209 69.6065 39.6556C69.6155 39.8271 69.4119 39.9098 69.2868 39.9669C69.0831 40.0291 68.8865 40.1123 68.7002 40.215C68.3582 40.426 68.0388 40.6714 67.7471 40.9474L66.0792 42.5429L68.7303 47.3459Z" fill="white"/>
</svg>
