<svg width="73" height="54" viewBox="0 0 73 54" fill="none" xmlns="http://www.w3.org/2000/svg">
    <path d="M33.1343 41.3967L71.9997 19.0496V30.8677L33.1343 53V41.3967Z" stroke="black" stroke-linejoin="round"/>
    <path d="M1 34.9505V23.3472L33.1345 41.3967V53L1 34.9505Z" stroke="black" stroke-linejoin="round"/>
    <path d="M39.8654 1L1 23.3471L33.1345 41.3967L71.9999 19.0496L39.8654 1Z" stroke="black" stroke-linejoin="round"/>
    <path d="M63.5317 29.5785L66.3544 27.8595V24.6364L63.5317 26.3554V29.5785Z" stroke="black" stroke-linejoin="round"/>
    <path d="M59.6235 31.9421L62.4462 30.2231V26.785L59.6235 28.504V31.9421Z" stroke="black" stroke-linejoin="round"/>
    <path d="M55.7153 33.9123L58.538 32.2554V29.1487L55.7153 30.8267V33.9123Z" stroke="black" stroke-linejoin="round"/>
    <path d="M51.8071 36.2603L54.6298 34.5413V31.2975L51.8071 32.9911V36.2603Z" stroke="black" stroke-linejoin="round"/>
    <path d="M63.5317 33.876L66.3544 32.057V29.2549L63.5317 30.9739V33.876Z" stroke="black" stroke-linejoin="round"/>
    <path d="M59.6235 36.2397L62.4462 34.5207V31.5056L59.6235 33.2246V36.2397Z" stroke="black" stroke-linejoin="round"/>
    <path d="M55.7153 38.3884L58.538 36.6693V33.6917L55.7153 35.4107V38.3884Z" stroke="black" stroke-linejoin="round"/>
    <path d="M51.8071 40.7521L54.6298 39.0331V35.9424L51.8071 37.6614V40.7521Z" stroke="black" stroke-linejoin="round"/>
    <path d="M44.2583 44.9936L45.3439 44.349V38.8289L44.2583 39.4068V44.9936Z" stroke="black" stroke-linejoin="round"/>
    <path d="M46.6094 43.5926L47.695 42.948V37.4279L46.6094 38.0058V43.5926Z" stroke="black" stroke-linejoin="round"/>
    <path d="M41.9072 46.2749L42.9929 45.6303V40.2584L41.9072 40.903V46.2749Z" stroke="black" stroke-linejoin="round"/>
    <path d="M37.2056 49.0486L38.2912 48.404V43.0321L37.2056 43.6767V49.0486Z" stroke="black" stroke-linejoin="round"/>
    <path d="M39.5562 47.6476L40.6418 47.003V41.6311L39.5562 42.2757V47.6476Z" stroke="black" stroke-linejoin="round"/>
    <path d="M34.6543 50.4217L35.7399 49.777V44.4052L34.6543 45.0498V50.4217Z" stroke="black" stroke-linejoin="round"/>
    <path d="M69.1773 23.3471C69.8286 22.9173 70.48 23.3471 70.48 23.9917C70.48 24.8512 69.8286 25.7107 69.1773 26.1404C68.5259 26.5702 67.8745 26.1404 67.8745 25.4958C67.8745 24.6363 68.5259 23.5619 69.1773 23.3471Z" fill="#EB016E"/>
    <path d="M68.96 27.8594C69.6114 27.4296 70.2627 27.8594 70.2627 28.504C70.2627 29.3635 69.8285 30.223 68.96 30.6528C68.3086 31.0825 67.6572 30.6528 67.6572 30.0081C67.6572 29.1486 68.0915 28.2891 68.96 27.8594Z" fill="#EB016E"/>
</svg>
