<svg width="73" height="46" viewBox="0 0 73 46" fill="none" xmlns="http://www.w3.org/2000/svg">
    <g opacity="0.4">
        <path d="M6.50522 43.8511L10.9166 39.4242L9.43551 37.938L6.67039 40.7134L1.64629 35.6686L0 37.3253L6.50522 43.8511ZM8.322 31.6359L9.43551 32.7493L11.7211 30.448L13.0477 31.7798L10.7568 34.0811L12.174 35.4981L15.003 32.6588L16.3297 33.9905L11.8543 38.4867L5.34377 31.9609L9.82443 27.4595L11.1511 28.7913L8.322 31.6359ZM22.8082 27.5021L18.3809 26.2289C18.8866 25.1427 18.6397 23.8548 17.7682 23.0326C17.2546 22.5533 16.5694 22.3011 15.8676 22.3332C15.1657 22.3653 14.5064 22.6789 14.0387 23.2031L10.7408 26.5112L17.278 33.0423L18.9296 31.3856L13.6658 26.101L14.7313 25.0356C14.95 24.8075 15.2505 24.6759 15.5665 24.6699C15.8824 24.6639 16.1877 24.784 16.4149 25.0037C16.8751 25.4789 16.8631 26.2371 16.3883 26.6977L15.4186 27.6726L21.0447 29.2707L22.8082 27.5021ZM19.83 17.1355C21.8652 15.0952 24.5558 15.2923 26.4578 17.2047C28.3598 19.1172 28.5623 21.818 26.527 23.8583C24.4918 25.8986 21.8066 25.7015 19.8993 23.7731C17.9919 21.8447 17.7948 19.1598 19.83 17.1195V17.1355ZM21.1193 18.4459C20.0857 19.4794 20.4321 20.7419 21.6894 22.0045C22.9468 23.267 24.1988 23.6026 25.2324 22.5745C26.266 21.5463 25.9197 20.2785 24.6623 19.0159C23.405 17.7534 22.1529 17.3805 21.1193 18.4459ZM28.4184 13.7048L27.2037 10.0184L29.1323 8.08464L30.7466 14.408L33.2933 16.965L31.647 18.6217L29.111 16.0754L23.0746 14.1629L24.8914 12.341L28.3811 13.6995L28.4184 13.7048ZM58.5151 36.2066L65.0256 29.6809L63.2888 27.9389L56.7835 34.4647L58.5151 36.2066ZM33.6236 11.2223L38.685 8.79848L34.9449 12.5488L36.4527 14.0617L42.9526 7.53062L40.8907 5.45836L35.9945 7.85558L38.4453 3.00255L36.3142 0.866364L29.809 7.39211L31.3114 8.90502L35.0515 5.15471L32.638 10.2315L33.6236 11.2223ZM44.9026 12.1493L43.7891 13.2626L46.2878 15.7664L44.9612 17.0982L42.4678 14.5944L41.0506 16.0114L44.0874 19.0586L42.7608 20.3903L38.0723 15.6865L44.5776 9.1554L49.266 13.8593L47.9394 15.1911L44.9026 12.1493ZM51.1787 28.8498L55.5901 33.282L57.0766 31.7904L54.3114 29.0203L59.3355 23.9755L57.6839 22.3241L51.1787 28.8498ZM68.7071 33.3726L66.6186 40.2926H66.6133L71.1099 35.7858L72.655 37.336L66.1498 43.8617L64.1092 41.8161L65.8887 34.6831H65.894L61.4507 39.1419L59.9482 37.6343L66.4481 31.1086L68.7071 33.3726ZM49.948 27.614L51.2 23.1711C52.2863 23.6842 53.5799 23.4342 54.3967 22.5532C54.8713 22.0377 55.1207 21.3543 55.0897 20.6543C55.0587 19.9544 54.7498 19.2957 54.2315 18.8242L50.7312 15.3083L44.2206 21.8553L45.8722 23.5121L51.1467 18.2275L52.3988 19.5114C52.6957 19.8073 52.8122 20.2392 52.7043 20.6443C52.5964 21.0494 52.2806 21.3662 51.8758 21.4753C51.471 21.5845 51.0388 21.4694 50.7418 21.1734L49.5484 19.9855L48.1632 25.8453L49.948 27.614Z" fill="white"/>
        <path d="M7.74707 45.1346H64.9082L36.325 16.4157L7.74707 45.1346Z" fill="white"/>
    </g>
</svg>
