<svg width="80" height="20" viewBox="0 0 80 20" fill="none" xmlns="http://www.w3.org/2000/svg">
    <g opacity="0.4">
        <path fill-rule="evenodd" clip-rule="evenodd" d="M17.1702 -6.10352e-05L10.5995 10.957L4.32606 -6.10352e-05H0V17.5185H3.76438V5.87278L9.60912 15.6816H11.3922L17.3355 5.90491V17.5185H21.0671L21.0337 -6.10352e-05H17.1702Z" fill="white"/>
        <path fill-rule="evenodd" clip-rule="evenodd" d="M62.3424 0V14.0411H53.9223V0H49.7944V17.5185H65.2817V20H69.1446V14.0411H66.4702V0H62.3424Z" fill="white"/>
        <path fill-rule="evenodd" clip-rule="evenodd" d="M79.9313 13.9937C79.9313 15.941 78.3433 17.5188 76.3834 17.5188C74.424 17.5188 72.8359 15.941 72.8359 13.9937C72.8359 12.047 74.424 10.4687 76.3834 10.4687C78.3433 10.4687 79.9313 12.047 79.9313 13.9937Z" fill="white"/>
        <path fill-rule="evenodd" clip-rule="evenodd" d="M40.4827 -6.10352e-05L30.7416 11.5482V-6.10352e-05H26.6143V17.5185H30.4115L40.1197 5.97072V17.5185H44.2476V-6.10352e-05H40.4827Z" fill="white"/>
    </g>
</svg>
