<svg width="50" height="49" viewBox="0 0 50 49" fill="none" xmlns="http://www.w3.org/2000/svg">
    <path d="M25.6155 24.2306C25.6155 30.1859 20.1063 35.0117 13.3077 35.0117C6.50918 35.0117 1 30.1859 1 24.2306C1 19.8155 7.79856 7.13494 11.3151 2.0011C12.2528 0.6663 14.4213 0.6663 15.359 2.0011C18.8169 7.13494 25.6155 19.8155 25.6155 24.2306Z" stroke="#202E35" stroke-width="2" stroke-miterlimit="10" stroke-linecap="round" stroke-linejoin="round"/>
    <path d="M13.3066 21.6638V47.8463" stroke="#202E35" stroke-width="2" stroke-miterlimit="10" stroke-linecap="round" stroke-linejoin="round"/>
    <path d="M8.03223 16.5298L13.307 21.6637L18.5817 16.5298" stroke="#202E35" stroke-width="2" stroke-miterlimit="10" stroke-linecap="round" stroke-linejoin="round"/>
    <path d="M8.03223 24.2305L13.307 29.3645L18.5817 24.2305" stroke="#202E35" stroke-width="2" stroke-miterlimit="10" stroke-linecap="round" stroke-linejoin="round"/>
    <path d="M49 28.9024C49 33.6769 44.5458 37.5786 39.0952 37.5786C33.6447 37.5786 29.1904 33.6769 29.1904 28.9024C29.1904 25.3601 34.641 15.1437 37.4542 10.9853C38.1575 9.90723 39.9743 9.90723 40.6776 10.9853C43.5494 15.1437 49 25.3087 49 28.9024Z" stroke="#EB016E" stroke-width="2" stroke-miterlimit="10" stroke-linecap="round" stroke-linejoin="round"/>
    <path d="M39.0972 26.7975V47.8463" stroke="#EB016E" stroke-width="2" stroke-miterlimit="10" stroke-linecap="round" stroke-linejoin="round"/>
    <path d="M1.00293 47.8464L48.6012 47.8511" stroke="#202E35" stroke-width="2" stroke-miterlimit="10" stroke-linecap="round" stroke-linejoin="round"/>
</svg>
