<svg width="69" height="18" viewBox="0 0 69 18" fill="none" xmlns="http://www.w3.org/2000/svg">
    <g opacity="0.4">
        <path d="M68.9382 0.559979C68.9382 0.559979 67.576 0.369598 66.028 0.369598C64.48 0.369598 63.1797 0.496519 63.1797 0.496519V5.70025H69.0001V0.559979H68.9382Z" fill="white"/>
        <path d="M68.9386 12.4905H63.1182V17.4404C63.1182 17.4404 64.79 17.6307 66.0903 17.6307C67.3906 17.6307 68.9386 17.4404 68.9386 17.4404V12.4905Z" fill="white"/>
        <path d="M60.827 0.559845H54.0159L49.2481 6.65202H47.081V0.559845H41.1367V17.4402H47.081V11.0942H49.1862L53.954 17.4402H61.2605L54.1398 8.49236L60.827 0.559845Z" fill="white"/>
        <path d="M18.6598 0.559845H0.0839844V17.4402H6.02824V5.31935H12.7155V17.4402H18.6598V0.559845Z" fill="white"/>
        <path d="M21.632 5.06561L20.7651 0.559944C20.7651 0.559944 26.3379 0.115723 29.8054 0.115723C33.2728 0.115723 37.4214 0.559944 37.4214 0.559944C37.4214 0.559944 38.7217 3.98679 38.7217 8.80976C38.7217 13.6327 37.4214 17.4403 37.4214 17.4403C37.4214 17.4403 33.4586 17.8846 29.8054 17.8846C26.1521 17.8846 20.8271 17.4403 20.8271 17.4403L21.6939 12.9347C21.6939 12.9347 25.4091 13.252 28.6289 13.252C31.7868 13.252 33.0871 12.9347 33.0871 12.9347C33.0871 12.9347 33.2109 12.1097 33.3348 11.1578H25.5948V6.8425H33.2728C33.149 5.76367 33.0871 5.06561 33.0871 5.06561C33.0871 5.06561 30.4245 4.74831 28.1955 4.74831C25.9664 4.74831 21.632 5.06561 21.632 5.06561Z" fill="white"/>
    </g>
</svg>
