<svg width="59" height="56" viewBox="0 0 59 56" fill="none" xmlns="http://www.w3.org/2000/svg">
    <path d="M53.8376 30.6878C56.0501 28.8552 57.4022 26.0452 57.4022 22.9909C57.4022 18.4706 54.4522 14.5611 50.273 13.2172C49.5355 8.33032 45.2334 4.54299 40.0709 4.54299C38.473 4.54299 36.8751 4.9095 35.523 5.64253C35.2772 5.64253 35.1543 5.52036 34.9084 5.52036C33.0647 2.83258 29.8688 1 26.3043 1C22.7397 1 19.6668 2.71041 17.823 5.39819C16.4709 4.9095 14.9959 4.54299 13.398 4.54299C6.88343 4.54299 1.4751 9.79638 1.4751 16.3937C1.4751 22.8688 6.76051 28.2443 13.398 28.2443C18.1918 28.2443 22.248 25.4344 24.0918 21.5249C25.9355 24.0905 29.0084 25.8009 32.4501 25.8009C34.048 25.8009 35.4001 25.4344 36.7522 24.8235C37.2438 27.7557 39.0876 30.3213 41.6688 31.7873" stroke="#EB016E" stroke-width="2" stroke-miterlimit="10"/>
    <path d="M5.8999 16.0272C5.8999 20.181 9.34157 23.6018 13.5207 23.6018" stroke="#EB016E" stroke-width="2" stroke-miterlimit="10"/>
    <path d="M26.1812 13.9502C26.1812 17.4932 29.0082 20.3031 32.5728 20.3031" stroke="#EB016E" stroke-width="2" stroke-miterlimit="10"/>
    <path d="M41.5459 25.0679C42.2834 27.1448 44.1272 28.6109 46.3397 29.0995" stroke="#EB016E" stroke-width="2" stroke-miterlimit="10"/>
    <path d="M13.3979 4.42078C16.9625 4.42078 20.1584 6.00901 22.3709 8.57462" stroke="#EB016E" stroke-width="2" stroke-miterlimit="10"/>
    <path d="M33.1875 3.44348C35.0312 5.03172 36.2604 7.23081 36.6292 9.67425" stroke="#EB016E" stroke-width="2" stroke-miterlimit="10"/>
    <path d="M40.4394 22.1357C38.5957 24.3348 35.7686 25.6787 32.5728 25.6787" stroke="#EB016E" stroke-width="2" stroke-miterlimit="10"/>
    <path d="M56.5418 55L51.6251 33.009H43.8814L38.8418 55H56.5418Z" stroke="#202E35" stroke-width="2" stroke-miterlimit="10"/>
    <path d="M0 55H59" stroke="#202E35" stroke-width="2" stroke-miterlimit="10"/>
    <path d="M41.7915 39.1177H19.6665V55" stroke="#202E35" stroke-width="2" stroke-miterlimit="10"/>
    <path d="M17.2083 44.0045H7.375V55" stroke="#202E35" stroke-width="2" stroke-miterlimit="10"/>
    <path d="M23.354 50.1131H25.8123" stroke="#202E35" stroke-width="2" stroke-miterlimit="10"/>
    <path d="M28.271 50.1131H30.7293" stroke="#202E35" stroke-width="2" stroke-miterlimit="10"/>
    <path d="M33.1875 50.1131H35.6458" stroke="#202E35" stroke-width="2" stroke-miterlimit="10"/>
</svg>
