<svg width="50" height="91" viewBox="0 0 50 91" fill="none" xmlns="http://www.w3.org/2000/svg">
<path d="M22.3038 10.5577C18.7045 12.6006 15.2024 16.1027 12.4785 20.4803L13.7432 21.4531C16.1752 17.6592 19.1909 14.6435 22.2066 12.7952C25.3195 10.9468 28.4325 10.5577 30.7673 11.6278L32.2265 9.19577C29.4053 7.93112 25.9032 8.41753 22.3038 10.5577Z" fill="#EB016E"/>
<path d="M22.3038 17.3675C19.9691 18.7294 17.6343 21.0642 15.8833 23.8853L17.2452 24.8581C18.7044 22.5234 20.5528 20.675 22.4011 19.605C24.2494 18.5349 26.195 18.243 27.6542 18.924L29.0162 16.3947C26.9733 15.7137 24.7358 16.0056 22.3038 17.3675Z" fill="#EB016E"/>
<path d="M22.3037 24.0799C21.0391 24.7608 19.8717 26.0255 18.8989 27.582L20.2609 28.5548C20.8445 27.582 21.6228 26.8037 22.401 26.4146C23.1793 25.9282 23.9575 25.8309 24.5412 26.1228L25.9031 23.5935C24.833 23.2043 23.5684 23.3989 22.3037 24.0799Z" fill="#EB016E"/>
<path d="M48.0827 1.7052L48.9582 34.3915C48.9582 34.6833 48.7637 34.9751 48.3745 35.1697C47.5963 35.6561 46.3317 35.6561 45.5534 35.1697C45.1643 34.9751 44.9697 34.6833 44.9697 34.3915L45.6507 1.7052C45.6507 1.89976 45.748 2.09432 46.0398 2.1916C46.5262 2.48344 47.3045 2.48344 47.6936 2.1916C47.9854 2.09432 48.0827 1.89976 48.0827 1.7052Z" stroke="black" stroke-linejoin="round"/>
<path d="M47.791 1.21888C48.2774 1.51072 48.2774 1.89984 47.791 2.19169C47.3046 2.48353 46.5264 2.48353 46.1373 2.19169C45.6509 1.89984 45.6509 1.51072 46.1373 1.21888C46.5264 0.92704 47.3046 0.92704 47.791 1.21888Z" stroke="black" stroke-linejoin="round"/>
<path d="M1.34783 59.7826L1.29826 60.427C1.167 62.1334 2.94749 63.3306 4.47826 62.5652V62.5652L17.1504 54.8952C17.5009 54.6831 17.7582 54.3463 17.8708 53.9523V53.9523C18.1443 52.9948 17.4993 52.0189 16.5111 51.8954L16.2205 51.8591C15.8231 51.8094 15.4202 51.8883 15.071 52.0842L5.322 57.5532" stroke="black"/>
<path d="M4.46063 28.8356L5.33616 61.5218C5.33616 61.8137 5.1416 62.1055 4.75247 62.3001C3.97423 62.7865 2.70959 62.7865 1.93134 62.3001C1.54222 62.1055 1.34766 61.8137 1.34766 61.5218L2.02862 28.8356C2.02862 29.0301 2.1259 29.2247 2.41774 29.322C2.90415 29.6138 3.68239 29.6138 4.07151 29.322C4.36336 29.2247 4.46063 29.0301 4.46063 28.8356Z" stroke="black" stroke-linejoin="round"/>
<path d="M4.16896 28.3493C4.65536 28.6411 4.65536 29.0302 4.16896 29.3221C3.68256 29.6139 2.90431 29.6139 2.51519 29.3221C2.02879 29.0302 2.02879 28.6411 2.51519 28.3493C2.90431 28.0574 3.68256 28.0574 4.16896 28.3493Z" stroke="black" stroke-linejoin="round"/>
<path d="M13.4517 82.0591C13.4517 83.421 13.9381 84.2965 14.7163 84.7829L22.4015 89.2578C21.6232 88.8687 21.1368 87.8959 21.1368 86.6313" stroke="black" stroke-linejoin="round"/>
<path d="M13.4517 82.0591C13.4517 83.421 13.9381 84.2965 14.7163 84.7829L22.4015 89.2578C21.6232 88.8687 21.1368 87.8959 21.1368 86.6313" stroke="black" stroke-linejoin="round"/>
<path d="M37.5768 33.0295L29.8916 28.5546C31.059 27.8736 32.1291 27.7763 32.9073 28.2627L40.5925 32.7376C39.8142 32.3485 38.7441 32.3485 37.5768 33.0295Z" stroke="black" stroke-linejoin="round"/>
<path d="M21.1364 86.6312L21.0392 47.4272L13.354 42.9523L13.3786 52.8262M13.4513 82.059L13.3898 57.3479" stroke="black" stroke-linejoin="round"/>
<path d="M25.2223 40.1311L17.5371 35.6562L29.8917 28.5547L37.5769 33.0296L25.2223 40.1311Z" stroke="black" stroke-linejoin="round"/>
<path d="M21.0392 47.4272L13.354 42.9523C13.354 40.3257 15.2023 37.0182 17.5371 35.6562L25.2222 40.1312C22.8875 41.4931 21.0392 44.8006 21.0392 47.4272Z" stroke="black" stroke-linejoin="round"/>
<path d="M37.5767 33.0294C39.9115 31.6675 41.7598 32.7376 41.7598 35.4615L41.8571 74.6655C41.8571 77.2921 40.0088 80.5996 37.674 81.9615L25.4167 88.9657C23.082 90.3277 21.2336 89.2576 21.2336 86.5337L21.0391 47.427C21.0391 44.8004 22.8874 41.4928 25.2221 40.1309L37.5767 33.0294Z" stroke="black" stroke-linejoin="round"/>
<path d="M39.3166 36.8471C39.3166 35.686 38.5437 35.1582 37.5775 35.7916C36.6113 36.4249 35.8384 37.9026 35.8384 39.0637C35.8384 40.2248 36.6113 40.7526 37.5775 40.1193C38.5437 39.4859 39.3166 38.0082 39.3166 36.8471Z" stroke="black" stroke-linejoin="round"/>
<path d="M33.7517 39.6297C33.7517 38.4686 32.9788 37.9408 32.0126 38.5742C31.0464 39.2075 30.2734 40.6852 30.2734 41.8463C30.2734 43.0074 31.0464 43.5352 32.0126 42.9019C32.9788 42.2685 33.7517 40.7908 33.7517 39.6297Z" stroke="black" stroke-linejoin="round"/>
<path d="M40.0125 51.2952L23.3169 60.5642V52.3463L40.0125 43.1729V51.2952Z" stroke="black" stroke-linejoin="round"/>
<path d="M49 34.7392V34.7392C49 35.6023 48.5472 36.4022 47.807 36.8463L42.0435 40.3044L41.9131 36.1305L44.8261 34.3914" stroke="black"/>
</svg>
