<svg width="106" height="23" viewBox="0 0 106 23" fill="none" xmlns="http://www.w3.org/2000/svg">
    <g opacity="0.4">
        <mask id="mask0" mask-type="alpha" maskUnits="userSpaceOnUse" x="0" y="0" width="10" height="20">
            <path d="M0 0H9.52184V19.341H0V0Z" fill="white"/>
        </mask>
        <g mask="url(#mask0)">
            <path fill-rule="evenodd" clip-rule="evenodd" d="M5.70709 11.9287L2.40758 19.341H0L3.6233 11.4158C1.92089 10.5507 0.784248 8.97962 0.784248 6.0861C0.784248 2.02833 3.35273 0 6.40939 0H9.5219V19.341H7.43823V11.9287H5.70709ZM7.43823 1.75762H6.32807C4.65214 1.75762 3.02856 2.86791 3.02856 6.0861C3.02856 9.19811 4.51773 10.1977 6.32807 10.1977H7.43823V1.75762Z" fill="white"/>
        </g>
        <path fill-rule="evenodd" clip-rule="evenodd" d="M19.5724 5.71819V19.3527H17.4909V13.2381H14.3523V19.3527H12.2422V5.71819H14.3523V11.507H17.4909V5.71819H19.5724ZM30.4198 22.0302H28.5254V19.3527H22.6845V22.0302H20.7905V17.6214H21.6295C22.8738 14.7269 23.0083 10.5066 23.0083 6.88144V5.71819H29.3385V17.6214H30.4198V22.0302ZM27.2548 7.42372H24.9026V7.66519C24.9026 10.5331 24.7659 14.7269 23.6296 17.6214H27.2548V7.42372ZM36.2364 19.542C33.4219 19.542 31.6905 17.2976 31.6905 13.1037C31.6905 8.72039 32.9088 5.52881 35.8026 5.52881C38.0756 5.52881 39.5626 7.23359 39.5626 11.859V13.0224H33.8822C33.8822 16.1059 34.7479 17.7294 36.4263 17.7294C37.6157 17.7294 38.5626 17.1898 39.1022 16.8102L39.5892 18.4317C38.7235 19.1075 37.5892 19.542 36.2364 19.542ZM33.9088 11.2911H37.3998C37.3998 8.96461 37.0208 7.26007 35.8026 7.26007C34.5054 7.26007 34.0455 8.85668 33.9088 11.2911ZM43.8376 12.5614V19.3527H41.7278V5.71819H43.8376V12.0218L47.1106 5.71819H49.2474L45.8664 12.1298L49.7338 19.3527H47.4344L43.8376 12.5614ZM50.005 12.5358C50.005 8.26231 51.6547 5.52881 54.8459 5.52881C56.064 5.52881 56.7669 5.85535 57.3613 6.23398L57.0641 8.23395C56.4957 7.74739 55.685 7.28931 54.8194 7.28931C53.304 7.28931 52.2226 8.99122 52.2226 12.4279C52.2226 15.8343 53.0333 17.7842 54.7381 17.7842C55.7668 17.7842 56.5507 17.3762 57.0375 16.9446L57.5246 18.5131C56.7929 19.1367 55.9273 19.542 54.683 19.542C51.7626 19.542 50.005 17.1898 50.005 12.5358Z" fill="white"/>
        <path fill-rule="evenodd" clip-rule="evenodd" d="M67.0013 1.141V19.3737H65.6486V1.141H61.8359V0.0327148H70.8425V1.141H67.0013Z" fill="white"/>
        <path fill-rule="evenodd" clip-rule="evenodd" d="M76.6671 17.5948C76.0174 18.8916 75.0439 19.7047 73.6917 19.7047C71.8525 19.7047 70.5796 18.2442 70.5796 15.7558C70.5796 12.833 72.1763 11.3196 75.1255 11.3196H76.6122V9.61482C76.6122 7.53078 75.8279 6.63897 74.3416 6.63897C73.1764 6.63897 72.121 7.18137 71.4735 8.12602L71.1211 6.9098C71.6628 6.2055 72.7973 5.52881 74.3416 5.52881C76.5857 5.52881 77.8567 6.77339 77.8567 9.47853V16.9181C77.8567 17.8657 77.9908 18.9209 78.154 19.434H76.9909C76.8829 19.0809 76.7489 18.568 76.6671 17.5948ZM76.6122 15.9982V12.2376H75.1517C72.9075 12.2376 71.8238 13.2666 71.8238 15.6478C71.8238 17.5683 72.6628 18.6758 73.9624 18.6758C75.2335 18.6758 76.1252 17.4575 76.6122 15.9982Z" fill="white"/>
        <path fill-rule="evenodd" clip-rule="evenodd" d="M82.0944 19.4143H80.8232V5.77979H82.0944V12.1916L86.6648 5.77979H87.909L83.42 12.11L88.2349 19.4143H86.8275L82.0944 12.3551V19.4143Z" fill="white"/>
        <path fill-rule="evenodd" clip-rule="evenodd" d="M96.1027 17.1339L96.5079 18.1892C96.5079 18.1892 95.5061 19.7046 93.3692 19.7046C90.6381 19.7046 89.0679 17.0808 89.0679 12.6428C89.0679 8.15425 90.6098 5.52881 93.3957 5.52881C94.8033 5.52881 95.7768 6.07096 96.3716 6.80174L96.0214 8.15425C95.4242 7.31479 94.5609 6.61236 93.3957 6.61236C91.3144 6.61236 90.3409 8.80171 90.3409 12.6428C90.3409 16.3766 91.2855 18.5943 93.3957 18.5943C95.1557 18.5943 96.1027 17.1339 96.1027 17.1339Z" fill="white"/>
        <path fill-rule="evenodd" clip-rule="evenodd" d="M104.785 9.91888C104.785 9.21646 104.838 8.62122 104.892 8.05308H104.811C104.622 8.6477 104.377 9.21646 104.08 9.81095L99.6442 19.4143H98.5625V5.77979H99.752V15.2486C99.752 15.9785 99.699 16.5729 99.6442 17.169H99.7255C99.9149 16.5464 100.186 15.9519 100.457 15.3564L104.892 5.77979H106V19.4143H104.785V9.91888Z" fill="white"/>
    </g>
</svg>
